<svg xmlns="http://www.w3.org/2000/svg" viewBox="0 0 512 512" xml:space="preserve"><circle fill="#80D6FB" cx="256" cy="256" r="233"/><path fill="#46BEE8" d="M429.948 82.052C383.485 35.588 321.709 10 256 10S128.515 35.588 82.052 82.052C35.588 128.515 10 190.291 10 256s25.588 127.485 72.052 173.948C128.515 476.412 190.291 502 256 502s127.485-25.588 173.948-72.052C476.411 383.485 502 321.709 502 256s-25.589-127.485-72.052-173.948zM36.395 269h81.18c.802 27.949 4.184 55.051 9.936 80.37H56.827C45.226 324.72 38.069 297.586 36.395 269zM269 136.63V37.52c23.808 5.569 46.295 26.344 64.382 59.893 6.47 12.002 12.11 25.156 16.871 39.217H269zm88.796 26c6.143 25.037 9.764 52.191 10.617 80.37H269v-80.37h88.796zM243 37.521v99.11h-81.253c4.761-14.061 10.401-27.215 16.871-39.217C196.705 63.865 219.192 43.09 243 37.521zm0 125.109V243h-99.413c.853-28.179 4.474-55.333 10.617-80.37H243zM117.574 243h-81.18c1.674-28.586 8.831-55.72 20.433-80.37h70.683c-5.751 25.319-9.134 52.421-9.936 80.37zm26.013 26H243v80.37h-88.796c-6.144-25.037-9.765-52.191-10.617-80.37zM243 375.37v99.11c-23.808-5.57-46.295-26.344-64.382-59.893-6.47-12.002-12.11-25.156-16.871-39.217H243zm26 99.109v-99.11h81.253c-4.761 14.061-10.401 27.215-16.871 39.217-18.087 33.549-40.574 54.324-64.382 59.893zm0-125.109V269h99.413c-.853 28.179-4.474 55.333-10.617 80.37H269zM394.426 269h81.18c-1.674 28.586-8.831 55.72-20.433 80.37H384.49c5.752-25.319 9.134-52.421 9.936-80.37zm0-26c-.802-27.949-4.184-55.051-9.936-80.37h70.683c11.602 24.649 18.758 51.783 20.433 80.37h-81.18zm46.288-106.37h-63.159c-5.744-18.608-12.871-35.943-21.288-51.555-7.309-13.557-15.365-25.406-24.021-35.444 44.836 16.618 82.823 47.451 108.468 86.999zM179.753 49.631c-8.656 10.038-16.712 21.887-24.021 35.444-8.417 15.613-15.544 32.947-21.288 51.555H71.286c25.645-39.548 63.632-70.381 108.467-86.999zM71.286 375.37h63.159c5.744 18.608 12.871 35.943 21.288 51.555 7.309 13.557 15.365 25.406 24.021 35.444-44.836-16.618-82.823-47.451-108.468-86.999zm260.961 86.999c8.656-10.038 16.712-21.887 24.021-35.444 8.417-15.613 15.544-32.947 21.288-51.555h63.159c-25.646 39.548-63.633 70.381-108.468 86.999z"/></svg>