<svg version="1.1" id="Layer_1" xmlns="http://www.w3.org/2000/svg" xmlns:xlink="http://www.w3.org/1999/xlink" x="0px" y="0px"
	 width="100%" viewBox="0 0 320 320" enable-background="new 0 0 320 320" xml:space="preserve">
<path fill="#010101" opacity="1.000000" stroke="none" 
	d="
M220.000000,321.000000 
	C146.666687,321.000000 73.833359,321.000000 1.000029,321.000000 
	C1.000020,214.333359 1.000020,107.666733 1.000010,1.000072 
	C107.666618,1.000048 214.333237,1.000048 320.999878,1.000024 
	C320.999939,107.666595 320.999939,214.333191 320.999969,320.999878 
	C287.500000,321.000000 254.000000,321.000000 220.000000,321.000000 
M187.555969,262.916107 
	C187.874649,262.615112 188.193329,262.314117 188.512024,262.013123 
	C188.303955,261.835388 188.095886,261.657623 187.887802,261.479889 
	C187.593063,261.987793 187.298340,262.495697 186.296646,263.001434 
	C185.826096,263.017120 185.355560,263.032776 184.265594,262.820618 
	C182.522995,260.852234 180.780396,258.883850 179.329224,256.382904 
	C181.409683,251.848907 177.423065,253.725052 175.321182,252.747086 
	C175.190048,252.172501 175.058914,251.597916 175.476959,250.628540 
	C174.263153,249.427628 173.049347,248.226700 171.374741,246.772858 
	C171.341568,246.600815 171.308395,246.428757 171.957214,245.977921 
	C172.434677,243.464386 172.912155,240.950836 173.389618,238.437302 
	C175.098679,241.391617 175.873367,244.637924 180.037552,242.959717 
	C180.037552,242.959717 180.125244,242.844330 180.022125,243.658310 
	C179.607178,246.030334 179.192215,248.402359 178.638290,251.568802 
	C181.927200,247.959778 183.326950,250.532639 184.932129,252.280426 
	C186.354126,253.828796 187.110672,256.701813 190.731400,255.094055 
	C191.185837,255.656403 191.640274,256.218781 192.113037,257.513214 
	C192.856659,257.895111 193.600266,258.276978 194.014038,258.998077 
	C194.014038,258.998077 194.334900,258.650757 194.163788,259.421143 
	C197.802032,266.334778 198.921890,268.070312 206.003586,265.896881 
	C208.330704,266.944580 210.657837,267.992279 212.968201,269.653137 
	C213.539398,272.997772 214.839371,270.956207 216.665771,270.036163 
	C217.098206,270.170441 217.530640,270.304718 218.127884,271.055084 
	C219.410980,271.066528 220.694077,271.077972 222.852493,270.958832 
	C224.913498,271.013580 226.974503,271.068329 229.387222,271.601868 
	C230.270874,271.212189 231.154526,270.822510 232.759857,270.118225 
	C233.758774,269.826691 234.757690,269.535156 235.878891,270.125153 
	C235.921799,270.418732 235.964706,270.712280 235.728394,271.107666 
	C235.816956,271.069244 235.905533,271.030823 236.757660,270.973236 
	C239.886703,270.817902 241.402512,269.261780 241.285797,265.480225 
	C242.262619,264.677399 243.239426,263.874573 244.940216,263.052551 
	C246.145401,260.591003 247.350601,258.129486 248.788559,255.964859 
	C248.788559,255.964859 248.589966,255.644089 249.283173,255.826920 
	C249.847626,255.216064 250.412064,254.605194 250.989624,253.200912 
	C251.007584,252.144714 251.025543,251.088501 251.750259,249.866699 
	C253.566589,247.572266 254.273270,245.600754 250.060303,244.213089 
	C250.073685,243.135529 250.087067,242.057983 250.579697,241.046219 
	C250.579697,241.046219 251.062027,241.009079 251.640182,240.915726 
	C251.944641,240.589661 252.249100,240.263611 252.553574,239.937561 
	C252.043945,239.618454 251.534317,239.299347 251.012451,238.490417 
	C251.012451,238.490417 250.999390,238.000610 251.368607,237.466568 
	C254.121277,233.435226 250.964691,233.506729 248.329987,233.004028 
	C248.329987,233.004028 248.315475,232.823822 248.707138,232.069611 
	C247.875549,230.372803 247.043961,228.676010 245.848145,226.412292 
	C245.705200,225.989395 245.562256,225.566483 246.199142,225.057465 
	C248.902847,224.408569 251.606537,223.759674 254.829208,222.986221 
	C256.380066,228.642944 257.761139,233.796265 259.250427,238.918106 
	C259.386658,239.386566 260.215668,239.653595 260.993103,240.837036 
	C260.974426,242.556961 260.955719,244.276901 260.198212,246.091415 
	C256.644440,249.552658 256.071686,253.968964 258.845795,257.736206 
	C259.391022,258.426361 259.936218,259.116516 260.481445,259.806671 
	C261.014374,258.936340 261.547333,258.066010 262.339111,256.628967 
	C263.225830,255.781418 264.112549,254.933853 265.066803,254.684128 
	C266.939362,254.684128 268.811890,254.684128 270.684448,254.684128 
	C270.761688,254.235306 270.838959,253.786469 270.916199,253.337646 
	C269.560150,252.542160 268.204102,251.746674 266.978882,250.339005 
	C267.649963,249.558075 268.321075,248.777161 269.685150,248.014648 
	C269.934021,247.283218 270.182922,246.551788 270.626648,245.333405 
	C270.764465,245.225845 270.902283,245.118271 271.714142,244.930252 
	C272.160461,243.980881 272.606812,243.031509 272.998016,242.025772 
	C272.998016,242.025772 273.074982,242.042801 273.796600,241.922485 
	C274.088867,241.101105 274.381104,240.279724 274.808350,238.892563 
	C275.250854,238.280716 275.693359,237.668869 276.813690,236.964127 
	C281.080475,231.449081 284.123779,225.437073 284.411621,218.015686 
	C284.411621,218.015686 284.624420,217.827728 285.409393,217.767822 
	C286.266418,213.843918 287.123444,209.920029 287.919586,205.196716 
	C288.147003,204.163589 288.374390,203.130463 289.101135,201.995773 
	C289.068542,201.330719 289.035980,200.665680 288.941254,199.140060 
	C293.281921,168.198318 286.088165,139.990982 267.797821,114.888870 
	C254.583557,96.753304 237.075470,83.893959 215.159531,76.109131 
	C211.080887,75.021484 207.002258,73.933846 202.199905,72.442642 
	C199.781006,72.038315 197.362106,71.633987 194.662354,70.896744 
	C194.102570,70.912804 193.542801,70.928864 192.274414,70.643364 
	C190.491577,70.526245 188.708740,70.409134 186.402740,69.938332 
	C184.929657,69.941635 183.456558,69.944931 181.099854,69.725128 
	C178.068665,69.809021 175.037491,69.892914 171.465225,69.748085 
	C170.334427,69.913307 169.203613,70.078522 167.235779,70.081223 
	C163.513504,70.651024 159.791214,71.220825 155.551315,71.604645 
	C155.052765,71.799576 154.554199,71.994514 153.358704,72.083771 
	C152.927200,72.248398 152.495712,72.413017 151.531799,72.376221 
	C151.033585,72.625618 150.535385,72.875015 149.258270,73.066620 
	C147.528183,73.590889 145.798080,74.115158 143.384048,74.548668 
	C141.700974,75.245354 140.017914,75.942039 137.710831,76.625221 
	C137.159042,76.900307 136.607254,77.175392 135.438126,77.366722 
	C134.733963,77.783348 134.029800,78.199974 132.632202,78.662910 
	C129.442688,80.279793 126.253166,81.896675 122.465683,83.498901 
	C121.858215,83.943085 121.250748,84.387268 120.029739,84.916626 
	C119.368629,85.391159 118.707520,85.865685 117.443916,86.335815 
	C116.841698,86.833275 116.239487,87.330727 115.241409,87.842316 
	C115.241409,87.842316 115.027016,88.175392 114.385963,88.267342 
	C113.380890,89.069527 112.375824,89.871704 110.717209,90.891037 
	C109.358528,91.789322 107.999847,92.687599 106.632378,93.591690 
	C105.079636,92.598396 103.706642,91.720093 102.129608,90.236816 
	C101.444122,89.771385 100.758636,89.305962 99.778275,88.249367 
	C97.894363,86.718346 96.010460,85.187325 93.897491,83.054886 
	C88.604973,78.534248 83.312462,74.013603 77.902740,68.841614 
	C75.657089,66.438675 74.195892,62.669048 69.046082,64.201675 
	C67.876488,63.937332 66.706894,63.672989 63.918468,63.042770 
	C70.500114,72.862999 76.328026,81.558586 82.374657,90.920128 
	C83.542435,92.631218 84.710220,94.342308 85.929192,96.708710 
	C86.723404,97.739418 87.517616,98.770119 88.520264,100.388008 
	C89.357597,101.590469 90.194931,102.792938 91.188187,104.839073 
	C90.846077,106.578682 90.503967,108.318298 89.593681,110.423027 
	C80.527145,120.689972 74.225121,132.648438 70.001434,145.478180 
	C56.908772,185.248123 63.448578,222.209503 89.869133,254.332947 
	C115.202736,285.134796 149.078537,298.331818 188.805588,294.046844 
	C201.015015,292.729950 212.864288,288.074066 225.641647,285.033752 
	C226.671188,283.985291 227.700714,282.936829 228.730255,281.888367 
	C227.828735,281.898773 226.927200,281.909180 225.174713,282.117249 
	C220.812042,281.318848 216.449387,280.520416 212.032944,278.961670 
	C210.891098,277.901550 209.798798,276.005524 208.598343,275.934418 
	C204.632721,275.699463 201.894089,274.008209 199.238815,271.137604 
	C198.200897,270.015564 195.372086,270.550079 192.881332,270.294861 
	C192.532608,269.987823 192.183884,269.680786 192.149109,268.824158 
	C192.496811,268.356232 192.844513,267.888306 193.516678,266.983734 
	C191.658508,266.983734 190.349472,266.983734 188.469711,266.847046 
	C187.962738,266.271881 187.455750,265.696716 187.008392,264.414856 
	C187.004395,263.942017 187.000397,263.469208 187.555969,262.916107 
M70.425102,61.489269 
	C70.425102,61.489269 70.521805,61.433620 70.425102,61.489269 
z"/>
<path fill="#FBFBFB" opacity="1.000000" stroke="none" 
	d="
M288.601807,202.097336 
	C288.374390,203.130463 288.147003,204.163589 287.707458,205.868500 
	C286.538361,210.302765 285.581390,214.065247 284.624420,217.827728 
	C284.624420,217.827728 284.411621,218.015686 284.174866,218.426605 
	C281.337341,224.910706 278.736603,230.983856 276.135864,237.057022 
	C275.693359,237.668869 275.250854,238.280716 274.441864,239.304337 
	C273.741913,240.491684 273.408447,241.267242 273.074982,242.042801 
	C273.074982,242.042801 272.998016,242.025772 272.741730,242.180145 
	C272.003662,243.226593 271.521881,244.118652 271.040100,245.010712 
	C270.902283,245.118271 270.764465,245.225845 270.282471,245.701141 
	C269.622955,246.711334 269.307587,247.353790 268.992188,247.996246 
	C268.321075,248.777161 267.649963,249.558075 266.637329,250.795624 
	C265.863586,252.196930 265.431427,253.141617 264.999268,254.086288 
	C264.112549,254.933853 263.225830,255.781418 261.785889,256.999451 
	C260.734161,257.258728 260.235687,257.147583 259.903809,256.653625 
	C260.359283,252.846146 260.648163,249.421494 260.937042,245.996826 
	C260.955719,244.276901 260.974426,242.556961 260.925232,240.022400 
	C259.520355,231.146530 257.854462,223.208755 252.364517,216.706711 
	C252.322708,216.722900 252.358810,216.641190 252.487839,216.292267 
	C250.252991,212.527115 248.368317,208.616394 245.442032,205.780487 
	C232.953598,193.677826 220.284607,181.752686 207.412186,170.059219 
	C202.114197,165.246490 196.136887,161.181580 190.414886,156.773834 
	C190.361206,156.771164 190.395035,156.669128 190.447220,156.309479 
	C186.368713,152.616455 182.238037,149.283066 177.956787,145.647125 
	C171.790421,140.601639 165.774643,135.858734 159.639175,130.841354 
	C158.685623,130.042511 157.851730,129.518127 156.927414,128.749161 
	C156.409302,128.237854 155.981613,127.971115 155.406891,127.432709 
	C154.197159,126.828178 153.134445,126.495323 152.071747,126.162468 
	C152.428802,126.893799 152.785873,127.625130 153.247971,128.643951 
	C153.821808,129.310608 154.290634,129.689758 154.895081,130.371887 
	C156.325607,131.846817 157.620468,133.018784 159.059113,134.487274 
	C164.511078,139.840317 169.819275,144.896835 175.266617,150.252686 
	C188.208786,162.725616 201.011810,174.899200 213.852539,187.396912 
	C214.952042,188.730530 216.013840,189.740021 217.239624,191.047852 
	C221.286865,194.896454 225.170120,198.446701 229.133423,202.297699 
	C230.142365,203.398758 231.071289,204.199081 232.104095,205.304886 
	C232.945953,206.372406 233.683914,207.134445 234.424423,208.184830 
	C235.011215,208.961243 235.595459,209.449310 236.239655,210.204926 
	C236.802124,210.986633 237.304672,211.500778 237.848419,212.338104 
	C238.584869,213.462082 239.280106,214.262863 240.037079,215.405701 
	C241.872330,218.879684 243.645828,222.011627 245.419312,225.143570 
	C245.562256,225.566483 245.705200,225.989395 246.017181,227.048309 
	C246.895966,229.397507 247.605713,231.110657 248.315475,232.823822 
	C248.315475,232.823822 248.329987,233.004028 248.323883,233.491745 
	C248.665573,234.995789 249.013382,236.012100 249.294281,237.370819 
	C249.518402,238.802277 249.809433,239.891357 250.100464,240.980423 
	C250.087067,242.057983 250.073685,243.135529 250.054428,244.965912 
	C250.087234,246.496048 250.125900,247.273392 249.954834,248.364441 
	C249.522476,250.453598 249.299866,252.229019 248.891907,254.241837 
	C248.667694,254.867523 248.628830,255.255798 248.589966,255.644089 
	C248.589966,255.644089 248.788559,255.964859 248.448914,256.060883 
	C246.811600,258.461853 245.513916,260.766785 244.216248,263.071747 
	C243.239426,263.874573 242.262619,264.677399 240.833252,265.803467 
	C238.839340,267.165710 237.297974,268.204681 235.756607,269.243622 
	C234.757690,269.535156 233.758774,269.826691 232.086914,270.181671 
	C230.621140,270.537750 229.828323,270.830414 229.035507,271.123077 
	C226.974503,271.068329 224.913498,271.013580 222.124008,270.830688 
	C220.251373,270.614716 219.107208,270.526855 217.963058,270.438965 
	C217.530640,270.304718 217.098206,270.170441 216.108307,269.797974 
	C214.695572,269.386505 213.840271,269.213226 212.984970,269.039978 
	C210.657837,267.992279 208.330704,266.944580 205.455627,265.597534 
	C201.383423,263.082397 197.859161,260.866577 194.334900,258.650757 
	C194.334900,258.650757 194.014038,258.998077 194.069199,258.541199 
	C193.447800,257.649902 192.771255,257.215515 192.094696,256.781128 
	C191.640274,256.218781 191.185837,255.656403 190.328354,254.697128 
	C186.658630,250.481567 183.391937,246.662949 180.125244,242.844330 
	C180.125244,242.844330 180.037552,242.959717 180.024490,242.581665 
	C161.556046,216.570282 143.110077,190.930161 124.617714,165.323532 
	C123.687294,164.035156 122.355736,163.036453 121.104706,161.563370 
	C119.667206,159.610245 118.335960,157.996643 117.004715,156.383041 
	C116.535248,156.778320 116.065781,157.173599 115.596313,157.568878 
	C116.638206,159.070755 117.680099,160.572647 118.800316,162.428284 
	C120.891174,165.866302 122.903702,168.950592 124.943916,172.359528 
	C125.617050,173.524261 126.262512,174.364319 126.978172,175.547882 
	C136.418793,191.212784 145.693420,206.593979 155.197952,221.831757 
	C160.354919,230.099472 165.903366,238.123016 171.275223,246.256714 
	C171.308395,246.428757 171.341568,246.600815 171.651947,247.223419 
	C172.928680,248.790421 173.928238,249.906876 174.927795,251.023331 
	C175.058914,251.597916 175.190048,252.172501 175.615005,253.234741 
	C176.951828,254.786743 177.994812,255.851089 179.037781,256.915436 
	C180.780396,258.883850 182.522995,260.852234 184.640320,263.245361 
	C185.659637,264.153931 186.304199,264.637756 186.948776,265.121552 
	C187.455750,265.696716 187.962738,266.271881 188.852997,267.219971 
	C190.102554,268.186523 190.968857,268.780151 191.835159,269.373779 
	C192.183884,269.680786 192.532608,269.987823 193.304947,270.610046 
	C199.847946,273.857483 205.967331,276.789764 212.086716,279.722015 
	C216.449387,280.520416 220.812042,281.318848 225.801025,282.342590 
	C225.911041,283.360992 225.394760,284.154053 224.878479,284.947083 
	C212.864288,288.074066 201.015015,292.729950 188.805588,294.046844 
	C149.078537,298.331818 115.202736,285.134796 89.869133,254.332947 
	C63.448578,222.209503 56.908772,185.248123 70.001434,145.478180 
	C74.225121,132.648438 80.527145,120.689972 90.205688,110.195084 
	C93.064674,108.054733 95.963295,106.165741 91.032265,103.995407 
	C90.194931,102.792938 89.357597,101.590469 88.571136,99.720078 
	C87.707352,98.052567 86.792679,97.052979 85.878006,96.053398 
	C84.710220,94.342308 83.542435,92.631218 82.712555,90.415833 
	C83.814804,88.935356 84.579163,87.959175 85.654686,87.176636 
	C88.740257,90.652161 91.514671,93.934052 94.410767,97.553162 
	C97.573227,101.813835 100.617180,105.734825 103.654129,109.661247 
	C110.922821,119.058830 118.188202,128.458969 125.503510,137.910797 
	C125.552109,137.963516 125.663071,138.054367 125.735435,138.371704 
	C126.541321,139.454483 127.274841,140.219925 128.003876,140.992676 
	C127.999390,141.000000 128.013855,140.992294 128.076263,141.303177 
	C128.954407,142.543365 129.770142,143.472656 130.807068,144.258514 
	C130.883514,144.215744 130.738785,144.316391 130.697617,144.720062 
	C131.878906,146.317184 132.956650,147.611328 134.077377,149.171570 
	C134.400085,149.630249 134.679810,149.822830 134.997009,150.316956 
	C135.586914,151.187271 136.139328,151.756058 136.832123,152.239502 
	C136.972504,152.154175 136.672516,152.288208 136.772476,152.609894 
	C140.968109,158.109207 145.063782,163.286819 149.215225,168.584839 
	C149.270981,168.705246 149.467392,168.883728 149.576508,169.164993 
	C150.385727,170.155548 151.085831,170.864853 151.784576,171.727051 
	C151.783234,171.879959 152.066727,171.994659 152.118256,172.330170 
	C157.416916,179.484772 162.664062,186.303848 167.941498,193.075592 
	C167.971786,193.028275 167.873795,193.083298 167.950134,193.418365 
	C175.997299,203.875870 183.968094,213.998291 191.977203,224.363083 
	C192.226913,224.885849 192.507874,225.036484 192.901810,225.368988 
	C193.643143,226.417770 194.341064,227.154922 195.101166,228.179596 
	C195.697815,229.014038 196.232269,229.560974 196.823334,230.420990 
	C197.923904,231.976334 198.967896,233.218567 200.075531,234.658051 
	C200.139191,234.855316 200.489624,235.076813 200.570114,235.351654 
	C201.415527,236.465439 202.180450,237.304413 202.985199,238.387009 
	C203.198990,238.968018 203.474136,239.111969 203.879318,239.367477 
	C204.305374,240.101852 204.702621,240.531265 205.120789,241.243591 
	C205.799042,242.182800 206.456390,242.839066 207.157913,243.651688 
	C207.202103,243.808029 207.437881,244.031647 207.514557,244.332947 
	C209.790649,247.560654 211.990082,250.487061 214.243378,253.527008 
	C214.297256,253.640549 214.486008,253.806503 214.628845,254.101044 
	C219.016663,259.166840 224.084625,260.363190 230.305908,257.907715 
	C231.570572,257.192596 232.524368,256.469971 233.555069,255.686798 
	C233.631989,255.626266 233.769745,255.487152 234.054062,255.350143 
	C234.922501,254.138931 235.506622,253.064728 236.282318,251.819962 
	C236.486740,251.478867 236.499588,251.308350 236.721603,250.837036 
	C237.106308,247.830078 238.344086,244.535355 237.238098,242.539276 
	C234.872696,238.270218 231.294724,234.673019 228.126129,230.504013 
	C227.400391,229.704971 226.761963,229.202530 226.103027,228.477249 
	C225.916809,227.958054 225.665146,227.827881 225.224518,227.544342 
	C223.383545,225.587021 221.645584,223.949265 219.798248,222.009155 
	C218.460556,220.595490 217.232224,219.484192 215.897705,218.034149 
	C212.411575,214.298248 209.031601,210.901138 205.596039,207.474960 
	C205.540436,207.445908 205.489059,207.331451 205.376099,207.054352 
	C204.661026,206.271851 204.058945,205.766449 203.226044,204.914642 
	C202.756897,204.426132 202.518555,204.284012 202.268829,203.887146 
	C197.030029,198.128754 191.802597,192.625107 186.521210,187.071777 
	C186.467255,187.022125 186.348007,186.936783 186.239532,186.606247 
	C183.592804,183.697693 181.054550,181.119659 178.471680,178.561310 
	C178.427048,178.580994 178.437393,178.483994 178.293961,178.220856 
	C177.282028,177.149689 176.413528,176.341644 175.498199,175.539581 
	C175.451370,175.545547 175.466248,175.452301 175.308502,175.183411 
	C174.525787,174.387756 173.900818,173.861008 173.154037,173.103058 
	C172.242661,172.156677 171.453094,171.441483 170.551987,170.419891 
	C169.526093,169.236588 168.611740,168.359711 167.637283,167.442886 
	C167.577194,167.402954 167.500351,167.280823 167.366577,166.990479 
	C165.168976,164.765503 163.105164,162.830887 160.925186,160.549423 
	C159.881027,159.476807 158.953033,158.751053 158.004501,158.056915 
	C157.983978,158.088547 158.013855,157.975342 157.966675,157.618607 
	C157.054550,156.463470 156.189590,155.665085 155.229492,154.567719 
	C154.497391,153.754852 153.860428,153.240997 153.174042,152.802063 
	C153.124603,152.876984 153.273621,152.776855 153.209869,152.471191 
	C152.503754,151.684875 151.861420,151.204239 151.177048,150.785400 
	C151.135025,150.847198 151.271164,150.785492 151.209320,150.487854 
	C150.409073,149.528900 149.670670,148.867584 148.798798,147.900345 
	C147.517624,146.548111 146.369888,145.501801 145.145416,144.144165 
	C142.897552,141.719986 140.726395,139.607132 138.477295,137.553299 
	C138.399353,137.612335 138.492676,137.440475 138.367279,137.148010 
	C136.449371,135.138123 134.656876,133.420715 132.783600,131.442871 
	C132.534592,131.113663 132.366348,131.044876 132.092514,130.648254 
	C124.328537,122.158463 116.645172,114.019707 109.027527,105.819885 
	C106.844444,103.469971 104.851387,100.943520 102.933067,98.362778 
	C103.182220,98.128380 103.269501,98.029213 103.356766,97.930038 
	C103.097572,98.070969 102.838379,98.211906 102.260864,98.406578 
	C101.008713,97.622330 100.074875,96.784348 99.053192,95.615341 
	C96.365601,92.271439 93.765854,89.258537 91.556015,86.120834 
	C92.672798,85.216125 93.399673,84.436218 94.126549,83.656303 
	C96.010460,85.187325 97.894363,86.718346 99.949821,88.904678 
	C100.858788,89.987259 101.596214,90.414528 102.333641,90.841789 
	C103.706642,91.720093 105.079636,92.598396 106.632378,93.591690 
	C107.999847,92.687599 109.358528,91.789322 111.410225,90.864441 
	C113.077827,89.950356 114.052422,89.062874 115.027016,88.175392 
	C115.027016,88.175392 115.241409,87.842316 115.766495,87.892166 
	C116.876518,87.408073 117.461456,86.874138 118.046402,86.340210 
	C118.707520,85.865685 119.368629,85.391159 120.650528,84.926132 
	C121.868759,84.461617 122.466209,83.987595 123.063660,83.513565 
	C126.253166,81.896675 129.442688,80.279793 133.311981,78.757545 
	C134.679672,78.384949 135.367569,77.917709 136.055466,77.450478 
	C136.607254,77.175392 137.159042,76.900307 138.391052,76.741013 
	C140.736847,76.117676 142.402420,75.378555 144.067993,74.639427 
	C145.798080,74.115158 147.528183,73.590889 149.780701,73.305130 
	C150.890152,73.221649 151.477173,72.899643 152.064209,72.577644 
	C152.495712,72.413017 152.927200,72.248398 153.824936,72.340919 
	C154.883759,72.328918 155.476349,72.059776 156.068939,71.790634 
	C159.791214,71.220825 163.513504,70.651024 167.871613,70.404099 
	C169.673721,70.476913 170.840012,70.226860 172.006302,69.976807 
	C175.037491,69.892914 178.068665,69.809021 181.762650,70.100395 
	C183.925598,70.414444 185.425751,70.353233 186.925903,70.292023 
	C188.708740,70.409134 190.491577,70.526245 192.748932,71.028702 
	C193.796692,71.352585 194.369949,71.291122 194.943207,71.229660 
	C197.362106,71.633987 199.781006,72.038315 202.724609,72.927475 
	C207.390579,74.483459 211.531845,75.554619 215.673126,76.625778 
	C237.075470,83.893959 254.583557,96.753304 267.797821,114.888870 
	C286.088165,139.990982 293.281921,168.198318 288.809570,199.803772 
	C288.652527,201.010773 288.627167,201.554047 288.601807,202.097336 
z"/>
<path fill="#0B0B0B" opacity="1.000000" stroke="none" 
	d="
M252.406326,216.690521 
	C257.854462,223.208755 259.520355,231.146530 260.790161,239.610962 
	C260.215668,239.653595 259.386658,239.386566 259.250427,238.918106 
	C257.761139,233.796265 256.380066,228.642944 254.829208,222.986221 
	C251.606537,223.759674 248.902847,224.408569 245.809235,225.100525 
	C243.645828,222.011627 241.872330,218.879684 240.051727,215.033295 
	C239.272156,213.550873 238.539688,212.782898 237.807220,212.014908 
	C237.304672,211.500778 236.802124,210.986633 236.441467,210.017548 
	C235.862839,209.007233 235.142349,208.451874 234.421875,207.896484 
	C233.683914,207.134445 232.945953,206.372406 232.104645,204.937088 
	C231.018631,203.508194 230.036011,202.752563 229.053375,201.996948 
	C225.170120,198.446701 221.286865,194.896454 217.222626,190.691101 
	C215.966049,189.048264 214.890457,188.060516 213.814850,187.072784 
	C201.011810,174.899200 188.208786,162.725616 175.509857,150.041931 
	C176.445084,148.337784 177.276215,147.143738 178.107346,145.949692 
	C182.238037,149.283066 186.368713,152.616455 190.132355,156.414185 
	C189.357117,157.308868 188.948944,157.739197 188.540771,158.169525 
	C188.767044,158.344894 188.993317,158.520264 189.219574,158.695633 
	C189.635910,158.055923 190.052231,157.416229 190.468567,156.776520 
	C196.136887,161.181580 202.114197,165.246490 207.412186,170.059219 
	C220.284607,181.752686 232.953598,193.677826 245.442032,205.780487 
	C248.368317,208.616394 250.252991,212.527115 252.170746,216.389023 
	C251.321625,217.226181 250.918594,217.617661 250.515564,218.009140 
	C250.731659,218.155884 251.126328,218.443848 251.138107,218.428955 
	C251.582764,217.866821 251.992172,217.276794 252.406326,216.690521 
z"/>
<path fill="#141414" opacity="1.000000" stroke="none" 
	d="
M121.210960,161.902878 
	C122.355736,163.036453 123.687294,164.035156 124.617714,165.323532 
	C143.110077,190.930161 161.556046,216.570282 180.085815,242.543060 
	C175.873367,244.637924 175.098679,241.391617 173.389618,238.437302 
	C172.912155,240.950836 172.434677,243.464386 171.616211,246.117310 
	C165.903366,238.123016 160.354919,230.099472 155.197952,221.831757 
	C145.693420,206.593979 136.418793,191.212784 127.007889,175.176010 
	C126.283676,173.652069 125.599953,172.843460 124.916237,172.034866 
	C122.903702,168.950592 120.891174,165.866302 119.215073,162.398483 
	C120.104652,161.977585 120.657806,161.940231 121.210960,161.902878 
z"/>
<path fill="#1B1B1B" opacity="1.000000" stroke="none" 
	d="
M91.166107,86.245644 
	C93.765854,89.258537 96.365601,92.271439 98.632339,95.643166 
	C96.962585,96.406647 95.625839,96.811295 94.289085,97.215942 
	C91.514671,93.934052 88.740257,90.652161 85.607437,86.875885 
	C81.294289,81.584007 77.164207,76.916649 73.463631,71.930542 
	C71.779030,69.660728 70.943565,66.760704 69.722939,64.146538 
	C74.195892,62.669048 75.657089,66.438675 77.639091,69.322845 
	C77.422455,70.682640 77.111069,71.901810 77.572090,72.386909 
	C82.029282,77.076950 86.616226,81.643684 91.166107,86.245644 
z"/>
<path fill="#E3E3E3" opacity="1.000000" stroke="none" 
	d="
M69.384506,64.174103 
	C70.943565,66.760704 71.779030,69.660728 73.463631,71.930542 
	C77.164207,76.916649 81.294289,81.584007 85.296272,86.682251 
	C84.579163,87.959175 83.814804,88.935356 82.603195,90.082855 
	C76.328026,81.558586 70.500114,72.862999 63.918468,63.042770 
	C66.706894,63.672989 67.876488,63.937332 69.384506,64.174103 
z"/>
<path fill="#E0E0E0" opacity="1.000000" stroke="none" 
	d="
M91.556015,86.120834 
	C86.616226,81.643684 82.029282,77.076950 77.572090,72.386909 
	C77.111069,71.901810 77.422455,70.682640 77.697693,69.648514 
	C83.312462,74.013603 88.604973,78.534248 94.012024,83.355591 
	C93.399673,84.436218 92.672798,85.216125 91.556015,86.120834 
z"/>
<path fill="#141414" opacity="1.000000" stroke="none" 
	d="
M212.059830,279.341858 
	C205.967331,276.789764 199.847946,273.857483 193.543762,270.627686 
	C195.372086,270.550079 198.200897,270.015564 199.238815,271.137604 
	C201.894089,274.008209 204.632721,275.699463 208.598343,275.934418 
	C209.798798,276.005524 210.891098,277.901550 212.059830,279.341858 
z"/>
<path fill="#141414" opacity="1.000000" stroke="none" 
	d="
M180.073685,243.251312 
	C183.391937,246.662949 186.658630,250.481567 190.063507,254.613770 
	C187.110672,256.701813 186.354126,253.828796 184.932129,252.280426 
	C183.326950,250.532639 181.927200,247.959778 178.638290,251.568802 
	C179.192215,248.402359 179.607178,246.030334 180.073685,243.251312 
z"/>
<path fill="#141414" opacity="1.000000" stroke="none" 
	d="
M194.249344,259.035950 
	C197.859161,260.866577 201.383423,263.082397 205.108673,265.580078 
	C198.921890,268.070312 197.802032,266.334778 194.249344,259.035950 
z"/>
<path fill="#2C2C2C" opacity="1.000000" stroke="none" 
	d="
M276.474792,237.010574 
	C278.736603,230.983856 281.337341,224.910706 284.166626,218.568344 
	C284.123779,225.437073 281.080475,231.449081 276.474792,237.010574 
z"/>
<path fill="#0B0B0B" opacity="1.000000" stroke="none" 
	d="
M260.567627,246.044128 
	C260.648163,249.421494 260.359283,252.846146 259.666504,256.612854 
	C259.262604,256.954895 258.783325,257.001312 258.783325,257.001312 
	C256.071686,253.968964 256.644440,249.552658 260.567627,246.044128 
z"/>
<path fill="#2C2C2C" opacity="1.000000" stroke="none" 
	d="
M285.016907,217.797775 
	C285.581390,214.065247 286.538361,210.302765 287.737885,206.268219 
	C287.123444,209.920029 286.266418,213.843918 285.016907,217.797775 
z"/>
<path fill="#E0E0E0" opacity="1.000000" stroke="none" 
	d="
M215.416321,76.367455 
	C211.531845,75.554619 207.390579,74.483459 203.086456,73.129257 
	C207.002258,73.933846 211.080887,75.021484 215.416321,76.367455 
z"/>
<path fill="#0B0B0B" opacity="1.000000" stroke="none" 
	d="
M265.033020,254.385208 
	C265.431427,253.141617 265.863586,252.196930 266.571899,251.101715 
	C268.204102,251.746674 269.560150,252.542160 270.916199,253.337646 
	C270.838959,253.786469 270.761688,254.235306 270.684448,254.684128 
	C268.811890,254.684128 266.939362,254.684128 265.033020,254.385208 
z"/>
<path fill="#141414" opacity="1.000000" stroke="none" 
	d="
M235.817749,269.684387 
	C237.297974,268.204681 238.839340,267.165710 240.702087,266.093567 
	C241.402512,269.261780 239.886703,270.817902 236.378830,270.986633 
	C236.000000,271.000000 236.007599,271.005798 236.007599,271.005798 
	C235.964706,270.712280 235.921799,270.418732 235.817749,269.684387 
z"/>
<path fill="#141414" opacity="1.000000" stroke="none" 
	d="
M244.578217,263.062134 
	C245.513916,260.766785 246.811600,258.461853 248.332550,255.912430 
	C247.350601,258.129486 246.145401,260.591003 244.578217,263.062134 
z"/>
<path fill="#0B0B0B" opacity="1.000000" stroke="none" 
	d="
M249.361191,237.028427 
	C249.013382,236.012100 248.665573,234.995789 248.353333,233.577209 
	C250.964691,233.506729 254.121277,233.435226 250.962173,237.644272 
	C250.157562,237.557449 249.759384,237.292938 249.361191,237.028427 
z"/>
<path fill="#E3E3E3" opacity="1.000000" stroke="none" 
	d="
M91.110229,104.417236 
	C95.963295,106.165741 93.064674,108.054733 90.489777,110.012527 
	C90.503967,108.318298 90.846077,106.578682 91.110229,104.417236 
z"/>
<path fill="#0B0B0B" opacity="1.000000" stroke="none" 
	d="
M250.164581,248.050720 
	C250.125900,247.273392 250.087234,246.496048 250.188782,245.350677 
	C254.273270,245.600754 253.566589,247.572266 251.372925,249.662552 
	C250.718582,248.989182 250.441574,248.519958 250.164581,248.050720 
z"/>
<path fill="#141414" opacity="1.000000" stroke="none" 
	d="
M225.260071,284.990417 
	C225.394760,284.154053 225.911041,283.360992 226.226501,282.243744 
	C226.927200,281.909180 227.828735,281.898773 228.730255,281.888367 
	C227.700714,282.936829 226.671188,283.985291 225.260071,284.990417 
z"/>
<path fill="#141414" opacity="1.000000" stroke="none" 
	d="
M179.183502,256.649170 
	C177.994812,255.851089 176.951828,254.786743 175.869751,253.397003 
	C177.423065,253.725052 181.409683,251.848907 179.183502,256.649170 
z"/>
<path fill="#141414" opacity="1.000000" stroke="none" 
	d="
M249.954834,248.364441 
	C250.441574,248.519958 250.718582,248.989182 251.019547,249.745361 
	C251.025543,251.088501 251.007584,252.144714 250.666809,253.601562 
	C249.921753,254.002945 249.499496,254.003693 249.077240,254.004440 
	C249.299866,252.229019 249.522476,250.453598 249.954834,248.364441 
z"/>
<path fill="#141414" opacity="1.000000" stroke="none" 
	d="
M175.202377,250.825928 
	C173.928238,249.906876 172.928680,248.790421 171.882355,247.349869 
	C173.049347,248.226700 174.263153,249.427628 175.202377,250.825928 
z"/>
<path fill="#E0E0E0" opacity="1.000000" stroke="none" 
	d="
M186.664322,70.115173 
	C185.425751,70.353233 183.925598,70.414444 182.204468,70.211945 
	C183.456558,69.944931 184.929657,69.941635 186.664322,70.115173 
z"/>
<path fill="#141414" opacity="1.000000" stroke="none" 
	d="
M248.511307,232.446716 
	C247.605713,231.110657 246.895966,229.397507 246.199280,227.331772 
	C247.043961,228.676010 247.875549,230.372803 248.511307,232.446716 
z"/>
<path fill="#292929" opacity="1.000000" stroke="none" 
	d="
M258.814575,257.368774 
	C258.783325,257.001312 259.262604,256.954895 259.499878,256.995667 
	C260.235687,257.147583 260.734161,257.258728 261.656494,257.282776 
	C261.547333,258.066010 261.014374,258.936340 260.481445,259.806671 
	C259.936218,259.116516 259.391022,258.426361 258.814575,257.368774 
z"/>
<path fill="#E0E0E0" opacity="1.000000" stroke="none" 
	d="
M143.726013,74.594048 
	C142.402420,75.378555 140.736847,76.117676 138.703064,76.747765 
	C140.017914,75.942039 141.700974,75.245354 143.726013,74.594048 
z"/>
<path fill="#E0E0E0" opacity="1.000000" stroke="none" 
	d="
M171.735764,69.862442 
	C170.840012,70.226860 169.673721,70.476913 168.290131,70.485352 
	C169.203613,70.078522 170.334427,69.913307 171.735764,69.862442 
z"/>
<path fill="#141414" opacity="1.000000" stroke="none" 
	d="
M218.045471,270.747040 
	C219.107208,270.526855 220.251373,270.614716 221.686340,270.895996 
	C220.694077,271.077972 219.410980,271.066528 218.045471,270.747040 
z"/>
<path fill="#141414" opacity="1.000000" stroke="none" 
	d="
M191.992126,269.098969 
	C190.968857,268.780151 190.102554,268.186523 189.138351,267.288330 
	C190.349472,266.983734 191.658508,266.983734 193.516678,266.983734 
	C192.844513,267.888306 192.496811,268.356232 191.992126,269.098969 
z"/>
<path fill="#141414" opacity="1.000000" stroke="none" 
	d="
M249.294281,237.370819 
	C249.759384,237.292938 250.157562,237.557449 250.777557,237.911285 
	C250.999390,238.000610 251.012451,238.490417 251.013550,239.073822 
	C251.030426,240.107849 251.046234,240.558472 251.062027,241.009079 
	C251.062027,241.009079 250.579697,241.046219 250.340088,241.013321 
	C249.809433,239.891357 249.518402,238.802277 249.294281,237.370819 
z"/>
<path fill="#141414" opacity="1.000000" stroke="none" 
	d="
M212.976593,269.346558 
	C213.840271,269.213226 214.695572,269.386505 215.767532,269.810486 
	C214.839371,270.956207 213.539398,272.997772 212.976593,269.346558 
z"/>
<path fill="#E3E3E3" opacity="1.000000" stroke="none" 
	d="
M85.903595,96.381058 
	C86.792679,97.052979 87.707352,98.052567 88.466919,99.426491 
	C87.517616,98.770119 86.723404,97.739418 85.903595,96.381058 
z"/>
<path fill="#E0E0E0" opacity="1.000000" stroke="none" 
	d="
M114.706490,88.221367 
	C114.052422,89.062874 113.077827,89.950356 111.737000,90.755859 
	C112.375824,89.871704 113.380890,89.069527 114.706490,88.221367 
z"/>
<path fill="#141414" opacity="1.000000" stroke="none" 
	d="
M229.211365,271.362488 
	C229.828323,270.830414 230.621140,270.537750 231.726074,270.338959 
	C231.154526,270.822510 230.270874,271.212189 229.211365,271.362488 
z"/>
<path fill="#2C2C2C" opacity="1.000000" stroke="none" 
	d="
M269.338684,248.005447 
	C269.307587,247.353790 269.622955,246.711334 270.185059,245.944626 
	C270.182922,246.551788 269.934021,247.283218 269.338684,248.005447 
z"/>
<path fill="#0B0B0B" opacity="1.000000" stroke="none" 
	d="
M248.891907,254.241837 
	C249.499496,254.003693 249.921753,254.002945 250.660248,253.998260 
	C250.412064,254.605194 249.847626,255.216064 248.936569,255.735504 
	C248.628830,255.255798 248.667694,254.867523 248.891907,254.241837 
z"/>
<path fill="#2C2C2C" opacity="1.000000" stroke="none" 
	d="
M271.377136,244.970490 
	C271.521881,244.118652 272.003662,243.226593 272.769287,242.208344 
	C272.606812,243.031509 272.160461,243.980881 271.377136,244.970490 
z"/>
<path fill="#141414" opacity="1.000000" stroke="none" 
	d="
M192.103867,257.147156 
	C192.771255,257.215515 193.447800,257.649902 194.234131,258.371582 
	C193.600266,258.276978 192.856659,257.895111 192.103867,257.147156 
z"/>
<path fill="#E0E0E0" opacity="1.000000" stroke="none" 
	d="
M151.798004,72.476929 
	C151.477173,72.899643 150.890152,73.221649 150.170135,73.334030 
	C150.535385,72.875015 151.033585,72.625618 151.798004,72.476929 
z"/>
<path fill="#E0E0E0" opacity="1.000000" stroke="none" 
	d="
M155.810120,71.697632 
	C155.476349,72.059776 154.883759,72.328918 154.173401,72.393761 
	C154.554199,71.994514 155.052765,71.799576 155.810120,71.697632 
z"/>
<path fill="#141414" opacity="1.000000" stroke="none" 
	d="
M187.003632,263.003632 
	C187.298340,262.495697 187.593063,261.987793 187.887817,261.479889 
	C188.095886,261.657623 188.303955,261.835388 188.512024,262.013123 
	C188.193329,262.314117 187.874649,262.615112 187.277985,262.958069 
	C187.000000,263.000000 187.003632,263.003632 187.003632,263.003632 
z"/>
<path fill="#141414" opacity="1.000000" stroke="none" 
	d="
M186.978577,264.768188 
	C186.304199,264.637756 185.659637,264.153931 184.950043,263.359314 
	C185.355560,263.032776 185.826096,263.017120 186.650146,263.002533 
	C187.003632,263.003632 187.000000,263.000000 186.998199,262.998169 
	C187.000397,263.469208 187.004395,263.942017 186.978577,264.768188 
z"/>
<path fill="#E0E0E0" opacity="1.000000" stroke="none" 
	d="
M194.802780,71.063202 
	C194.369949,71.291122 193.796692,71.352585 193.103226,71.179489 
	C193.542801,70.928864 194.102570,70.912804 194.802780,71.063202 
z"/>
<path fill="#E0E0E0" opacity="1.000000" stroke="none" 
	d="
M135.746796,77.408600 
	C135.367569,77.917709 134.679672,78.384949 133.658707,78.734390 
	C134.029800,78.199974 134.733963,77.783348 135.746796,77.408600 
z"/>
<path fill="#E0E0E0" opacity="1.000000" stroke="none" 
	d="
M122.764671,83.506233 
	C122.466209,83.987595 121.868759,84.461617 120.957298,84.883545 
	C121.250748,84.387268 121.858215,83.943085 122.764671,83.506233 
z"/>
<path fill="#E0E0E0" opacity="1.000000" stroke="none" 
	d="
M102.231628,90.539307 
	C101.596214,90.414528 100.858788,89.987259 100.097260,89.200256 
	C100.758636,89.305962 101.444122,89.771385 102.231628,90.539307 
z"/>
<path fill="#2C2C2C" opacity="1.000000" stroke="none" 
	d="
M288.851471,202.046555 
	C288.627167,201.554047 288.652527,201.010773 288.840637,200.234055 
	C289.035980,200.665680 289.068542,201.330719 288.851471,202.046555 
z"/>
<path fill="#0B0B0B" opacity="1.000000" stroke="none" 
	d="
M251.351105,240.962402 
	C251.046234,240.558472 251.030426,240.107849 251.019653,239.318756 
	C251.534317,239.299347 252.043945,239.618454 252.553558,239.937561 
	C252.249100,240.263611 251.944641,240.589661 251.351105,240.962402 
z"/>
<path fill="#2C2C2C" opacity="1.000000" stroke="none" 
	d="
M273.435791,241.982635 
	C273.408447,241.267242 273.741913,240.491684 274.374359,239.587219 
	C274.381104,240.279724 274.088867,241.101105 273.435791,241.982635 
z"/>
<path fill="#E0E0E0" opacity="1.000000" stroke="none" 
	d="
M117.745155,86.338013 
	C117.461456,86.874138 116.876518,87.408073 115.964424,87.885101 
	C116.239487,87.330727 116.841698,86.833275 117.745155,86.338013 
z"/>
<path fill="#141414" opacity="1.000000" stroke="none" 
	d="
M235.997040,270.996216 
	C235.905533,271.030823 235.816956,271.069244 235.867996,271.056732 
	C236.007599,271.005798 236.000000,271.000000 235.997040,270.996216 
z"/>
<path fill="#1B1B1B" opacity="1.000000" stroke="none" 
	d="
M70.473450,61.461445 
	C70.521805,61.433620 70.425102,61.489269 70.473450,61.461445 
z"/>
<path fill="#010101" opacity="1.000000" stroke="none" 
	d="
M170.663513,170.726288 
	C171.453094,171.441483 172.242661,172.156677 173.092346,173.515579 
	C173.923706,174.590302 174.694977,175.021301 175.466248,175.452301 
	C175.466248,175.452301 175.451370,175.545547 175.359467,175.917603 
	C176.324173,177.021103 177.380783,177.752548 178.437393,178.483994 
	C178.437393,178.483994 178.427048,178.580994 178.329681,178.939240 
	C178.985229,183.917999 181.553986,186.609406 186.348007,186.936783 
	C186.348007,186.936783 186.467255,187.022125 186.385834,187.479340 
	C186.867096,189.593277 187.184113,191.396317 188.059860,192.866592 
	C188.980759,194.412674 190.363388,195.716217 191.681915,196.982391 
	C192.684845,197.945526 194.010544,198.574783 195.002548,199.546631 
	C196.871429,201.377502 198.571564,203.381210 200.456207,205.194214 
	C200.596710,205.329407 201.650803,204.514923 202.280197,204.141907 
	C202.518555,204.284012 202.756897,204.426132 203.121857,205.322723 
	C203.995316,206.495285 204.742188,206.913376 205.489059,207.331451 
	C205.489059,207.331451 205.540436,207.445908 205.419189,207.874664 
	C205.868347,211.200897 206.438751,214.098343 206.731689,217.250946 
	C206.876297,218.967026 207.298355,220.427963 207.720398,221.888916 
	C208.479706,220.583908 209.261230,219.290909 209.978729,217.963303 
	C210.115051,217.711060 209.997818,217.321777 210.372131,216.994858 
	C211.877136,217.630417 212.961365,218.388702 214.160629,218.843781 
	C214.645660,219.027832 215.381943,218.549713 216.003891,218.372925 
	C217.232224,219.484192 218.460556,220.595490 219.811127,222.354858 
	C220.622253,224.668640 221.311127,226.334320 221.782669,228.162354 
	C221.621338,228.725784 221.677322,229.126877 221.733337,229.527954 
	C222.153763,229.015793 222.574203,228.503632 223.384338,227.985870 
	C224.291870,227.941483 224.809692,227.902695 225.327515,227.863892 
	C225.665146,227.827881 225.916809,227.958054 226.052002,228.861084 
	C226.012070,229.983780 226.002686,230.499786 225.995148,231.413849 
	C225.997787,232.874390 225.998581,233.936890 225.797455,235.122406 
	C225.609497,235.589355 225.623505,235.933304 225.637512,236.277252 
	C225.758545,235.851715 225.879578,235.426163 226.375122,235.000900 
	C227.498535,235.001404 228.247437,235.001617 229.036896,235.307190 
	C233.781830,238.306747 236.163528,244.107193 234.617126,249.989990 
	C230.873383,250.310806 226.768723,249.559387 224.296783,251.227493 
	C221.043457,253.422867 218.183136,254.505676 214.486008,253.806503 
	C214.486008,253.806503 214.297256,253.640549 214.515762,253.247131 
	C216.038162,250.569199 214.834747,242.856171 212.801590,241.656815 
	C212.170303,241.284439 210.927322,241.522980 210.168930,241.896805 
	C209.154312,242.396896 208.338852,243.301025 207.437881,244.031647 
	C207.437881,244.031647 207.202103,243.808029 207.369904,243.341858 
	C208.435654,240.059753 207.177399,239.988739 205.099869,240.960678 
	C204.702621,240.531265 204.305374,240.101852 204.175140,239.234436 
	C204.293335,237.864258 204.144531,236.932083 203.906158,235.610291 
	C202.707596,235.172699 201.598618,235.124756 200.489624,235.076813 
	C200.489624,235.076813 200.139191,234.855316 200.313141,234.338470 
	C199.997620,232.258972 199.508148,230.696289 199.018677,229.133606 
	C198.268021,229.458359 197.517365,229.783112 196.766724,230.107880 
	C196.232269,229.560974 195.697815,229.014038 195.103409,227.822906 
	C194.315094,226.471588 193.586746,225.764465 192.858398,225.057343 
	C192.507874,225.036484 192.226913,224.885849 192.131439,224.038025 
	C191.898315,221.880432 191.997162,219.962982 191.118134,218.760147 
	C188.228226,214.805695 184.205963,211.495773 182.083511,207.212402 
	C179.731598,202.465912 178.440567,197.317764 173.204742,194.878784 
	C173.393188,194.410141 173.378128,194.063675 173.363068,193.717209 
	C173.241440,194.144196 173.119797,194.571182 172.635651,194.989960 
	C170.806702,194.348938 169.340240,193.716125 167.873795,193.083298 
	C167.873795,193.083298 167.971786,193.028275 167.981583,192.718124 
	C169.034332,189.742950 165.809296,188.264999 165.761948,187.249420 
	C165.480362,181.210083 159.728806,179.165833 157.452011,174.699341 
	C156.716980,173.257416 153.920303,172.866409 152.066727,171.994659 
	C152.066727,171.994659 151.783234,171.879959 151.844421,171.295013 
	C151.092880,170.101288 150.280136,169.492508 149.467392,168.883728 
	C149.467392,168.883728 149.270981,168.705246 149.460114,168.267670 
	C149.908386,167.412338 150.192780,167.007935 150.421982,166.574356 
	C151.144424,165.207764 151.846161,163.830215 152.555908,162.456940 
	C151.124878,162.205353 149.533569,162.262833 148.302948,161.624710 
	C146.730331,160.809265 144.375900,159.553406 144.232132,158.276428 
	C143.684036,153.407776 140.331604,152.816666 136.672516,152.288208 
	C136.672516,152.288208 136.972504,152.154175 136.904785,151.892670 
	C136.211227,151.092590 135.585373,150.554001 134.959518,150.015411 
	C134.679810,149.822830 134.400085,149.630249 134.093109,148.797379 
	C134.298141,146.640625 134.530457,145.124146 134.840652,143.099274 
	C133.016647,143.665283 131.805359,144.041168 130.594070,144.417053 
	C130.738785,144.316391 130.883514,144.215744 130.927307,143.874893 
	C129.888840,142.753906 128.951340,141.873108 128.013855,140.992294 
	C128.013855,140.992294 127.999390,141.000000 128.008270,140.616913 
	C127.232445,139.507324 126.447762,138.780853 125.663071,138.054367 
	C125.663071,138.054367 125.552109,137.963516 125.665665,137.534821 
	C126.546448,135.252396 127.313675,133.398666 128.316330,130.976074 
	C129.274399,130.976074 130.736252,130.976074 132.198105,130.976074 
	C132.366348,131.044876 132.534592,131.113663 132.446991,131.563904 
	C132.413071,135.931320 134.344772,137.956604 138.492676,137.440475 
	C138.492676,137.440475 138.399353,137.612335 138.314270,137.985031 
	C137.887589,144.027420 140.559830,146.357574 145.222153,144.455475 
	C146.369888,145.501801 147.517624,146.548111 148.806152,148.257431 
	C149.721680,149.542130 150.496414,150.163803 151.271164,150.785492 
	C151.271164,150.785492 151.135025,150.847198 151.142914,151.148865 
	C151.858414,151.892639 152.566025,152.334747 153.273621,152.776855 
	C153.273621,152.776855 153.124603,152.876984 153.147507,153.170624 
	C153.888489,153.931732 154.606567,154.399216 155.324646,154.866699 
	C156.189590,155.665085 157.054550,156.463470 157.620102,157.672058 
	C157.208130,158.550964 157.095566,159.019653 156.983002,159.488358 
	C157.330338,159.000671 157.677689,158.512970 158.025024,158.025284 
	C158.953033,158.751053 159.881027,159.476807 160.902405,160.956696 
	C161.998352,163.808090 163.000916,165.905396 163.867889,168.055511 
	C163.820602,168.071045 163.908920,168.033768 164.451065,167.987823 
	C165.770050,167.746399 166.635193,167.513611 167.500351,167.280823 
	C167.500351,167.280823 167.577194,167.402954 167.448013,167.850952 
	C168.433731,169.108078 169.548615,169.917175 170.663513,170.726288 
M154.411224,159.482864 
	C154.411224,159.482864 154.523483,159.415588 154.411224,159.482864 
M217.414673,224.483307 
	C217.414673,224.483307 217.522720,224.419418 217.414673,224.483307 
z"/>
<path fill="#0E0E0E" opacity="1.000000" stroke="none" 
	d="
M132.092514,130.648254 
	C130.736252,130.976074 129.274399,130.976074 128.316330,130.976074 
	C127.313675,133.398666 126.546448,135.252396 125.617065,137.482117 
	C118.188202,128.458969 110.922821,119.058830 103.654129,109.661247 
	C100.617180,105.734825 97.573227,101.813835 94.410767,97.553162 
	C95.625839,96.811295 96.962585,96.406647 98.720184,95.974182 
	C100.074875,96.784348 101.008713,97.622330 102.331329,98.413177 
	C102.720100,98.366035 102.771194,98.498016 102.771194,98.498016 
	C104.851387,100.943520 106.844444,103.469971 109.027527,105.819885 
	C116.645172,114.019707 124.328537,122.158463 132.092514,130.648254 
z"/>
<path fill="#0E0E0E" opacity="1.000000" stroke="none" 
	d="
M167.950134,193.418365 
	C169.340240,193.716125 170.806702,194.348938 172.636566,194.990875 
	C173.000000,195.000000 173.001266,195.000961 173.001266,195.000961 
	C178.440567,197.317764 179.731598,202.465912 182.083511,207.212402 
	C184.205963,211.495773 188.228226,214.805695 191.118134,218.760147 
	C191.997162,219.962982 191.898315,221.880432 192.093109,223.795654 
	C183.968094,213.998291 175.997299,203.875870 167.950134,193.418365 
z"/>
<path fill="#050505" opacity="1.000000" stroke="none" 
	d="
M214.628845,254.101044 
	C218.183136,254.505676 221.043457,253.422867 224.296783,251.227493 
	C226.768723,249.559387 230.873383,250.310806 234.806198,250.259857 
	C235.744690,250.735306 236.128555,250.936569 236.512421,251.137848 
	C236.499588,251.308350 236.486740,251.478867 235.939240,251.952026 
	C234.859619,253.332153 234.314667,254.409653 233.769745,255.487152 
	C233.769745,255.487152 233.631989,255.626266 233.229904,255.506958 
	C231.883560,256.225189 230.939285,257.062683 229.995010,257.900208 
	C224.084625,260.363190 219.016663,259.166840 214.628845,254.101044 
z"/>
<path fill="#171717" opacity="1.000000" stroke="none" 
	d="
M177.956787,145.647125 
	C177.276215,147.143738 176.445084,148.337784 175.370712,149.742584 
	C169.819275,144.896835 164.511078,139.840317 159.080414,134.154678 
	C159.224915,132.722305 159.491882,131.919067 159.758850,131.115814 
	C165.774643,135.858734 171.790421,140.601639 177.956787,145.647125 
z"/>
<path fill="#0E0E0E" opacity="1.000000" stroke="none" 
	d="
M152.118256,172.330170 
	C153.920303,172.866409 156.716980,173.257416 157.452011,174.699341 
	C159.728806,179.165833 165.480362,181.210083 165.761948,187.249420 
	C165.809296,188.264999 169.034332,189.742950 167.951294,192.765442 
	C162.664062,186.303848 157.416916,179.484772 152.118256,172.330170 
z"/>
<path fill="#0E0E0E" opacity="1.000000" stroke="none" 
	d="
M136.772476,152.609894 
	C140.331604,152.816666 143.684036,153.407776 144.232132,158.276428 
	C144.375900,159.553406 146.730331,160.809265 148.302948,161.624710 
	C149.533569,162.262833 151.124878,162.205353 152.555908,162.456940 
	C151.846161,163.830215 151.144424,165.207764 150.421982,166.574356 
	C150.192780,167.007935 149.908386,167.412338 149.404358,168.147247 
	C145.063782,163.286819 140.968109,158.109207 136.772476,152.609894 
z"/>
<path fill="#0E0E0E" opacity="1.000000" stroke="none" 
	d="
M202.268829,203.887161 
	C201.650803,204.514923 200.596710,205.329407 200.456207,205.194214 
	C198.571564,203.381210 196.871429,201.377502 195.002548,199.546631 
	C194.010544,198.574783 192.684845,197.945526 191.681915,196.982391 
	C190.363388,195.716217 188.980759,194.412674 188.059860,192.866592 
	C187.184113,191.396317 186.867096,189.593277 186.439789,187.528992 
	C191.802597,192.625107 197.030029,198.128754 202.268829,203.887161 
z"/>
<path fill="#0E0E0E" opacity="1.000000" stroke="none" 
	d="
M236.721603,250.837036 
	C236.128555,250.936569 235.744690,250.735306 235.171753,250.264175 
	C236.163528,244.107193 233.781830,238.306747 229.009033,234.971680 
	C228.566208,233.283997 228.191818,232.237183 227.915573,231.092087 
	C228.013718,230.993790 228.213425,230.800629 228.213425,230.800629 
	C231.294724,234.673019 234.872696,238.270218 237.238098,242.539276 
	C238.344086,244.535355 237.106308,247.830078 236.721603,250.837036 
z"/>
<path fill="#050505" opacity="1.000000" stroke="none" 
	d="
M207.514557,244.332947 
	C208.338852,243.301025 209.154312,242.396896 210.168930,241.896805 
	C210.927322,241.522980 212.170303,241.284439 212.801590,241.656815 
	C214.834747,242.856171 216.038162,250.569199 214.461884,253.133575 
	C211.990082,250.487061 209.790649,247.560654 207.514557,244.332947 
z"/>
<path fill="#0E0E0E" opacity="1.000000" stroke="none" 
	d="
M207.009155,216.995804 
	C206.438751,214.098343 205.868347,211.200897 205.474792,207.903717 
	C209.031601,210.901138 212.411575,214.298248 215.897705,218.034149 
	C215.381943,218.549713 214.645660,219.027832 214.160629,218.843781 
	C212.961365,218.388702 211.877136,217.630417 209.998520,216.994553 
	C208.503281,216.995346 207.756226,216.995575 207.009155,216.995804 
z"/>
<path fill="#0E0E0E" opacity="1.000000" stroke="none" 
	d="
M145.145416,144.144165 
	C140.559830,146.357574 137.887589,144.027420 138.392212,137.925995 
	C140.726395,139.607132 142.897552,141.719986 145.145416,144.144165 
z"/>
<path fill="#0E0E0E" opacity="1.000000" stroke="none" 
	d="
M186.239532,186.606247 
	C181.553986,186.609406 178.985229,183.917999 178.374298,178.919571 
	C181.054550,181.119659 183.592804,183.697693 186.239532,186.606247 
z"/>
<path fill="#0E0E0E" opacity="1.000000" stroke="none" 
	d="
M167.366577,166.990479 
	C166.635193,167.513611 165.770050,167.746399 164.452454,167.989594 
	C164.000000,168.000000 164.003479,168.002701 164.003479,168.002701 
	C163.000916,165.905396 161.998352,163.808090 161.018555,161.303528 
	C163.105164,162.830887 165.168976,164.765503 167.366577,166.990479 
z"/>
<path fill="#0E0E0E" opacity="1.000000" stroke="none" 
	d="
M138.367279,137.148010 
	C134.344772,137.956604 132.413071,135.931320 132.527756,131.824310 
	C134.656876,133.420715 136.449371,135.138123 138.367279,137.148010 
z"/>
<path fill="#0E0E0E" opacity="1.000000" stroke="none" 
	d="
M130.697617,144.720062 
	C131.805359,144.041168 133.016647,143.665283 134.840652,143.099274 
	C134.530457,145.124146 134.298141,146.640625 134.050110,148.531281 
	C132.956650,147.611328 131.878906,146.317184 130.697617,144.720062 
z"/>
<path fill="#272727" opacity="1.000000" stroke="none" 
	d="
M121.104706,161.563370 
	C120.657806,161.940231 120.104652,161.977585 119.136742,162.044739 
	C117.680099,160.572647 116.638206,159.070755 115.596313,157.568878 
	C116.065781,157.173599 116.535248,156.778320 117.004715,156.383041 
	C118.335960,157.996643 119.667206,159.610245 121.104706,161.563370 
z"/>
<path fill="#0E0E0E" opacity="1.000000" stroke="none" 
	d="
M196.823318,230.420990 
	C197.517365,229.783112 198.268021,229.458359 199.018677,229.133606 
	C199.508148,230.696289 199.997620,232.258972 200.249481,234.141220 
	C198.967896,233.218567 197.923904,231.976334 196.823318,230.420990 
z"/>
<path fill="#0E0E0E" opacity="1.000000" stroke="none" 
	d="
M225.224518,227.544342 
	C224.809692,227.902695 224.291870,227.941483 223.135712,227.987473 
	C222.497360,227.994659 222.000000,228.000000 222.000000,228.000000 
	C221.311127,226.334320 220.622253,224.668640 219.920502,222.657227 
	C221.645584,223.949265 223.383545,225.587021 225.224518,227.544342 
z"/>
<path fill="#292929" opacity="1.000000" stroke="none" 
	d="
M159.639175,130.841354 
	C159.491882,131.919067 159.224915,132.722305 158.936646,133.858154 
	C157.620468,133.018784 156.325607,131.846817 155.188705,130.261124 
	C155.903732,129.562836 156.460800,129.278290 157.017853,128.993744 
	C157.851730,129.518127 158.685623,130.042511 159.639175,130.841354 
z"/>
<path fill="#0E0E0E" opacity="1.000000" stroke="none" 
	d="
M200.570114,235.351654 
	C201.598618,235.124756 202.707596,235.172699 203.654816,235.796707 
	C203.310471,236.962982 203.127930,237.553177 202.945374,238.143372 
	C202.180450,237.304413 201.415527,236.465439 200.570114,235.351654 
z"/>
<path fill="#0E0E0E" opacity="1.000000" stroke="none" 
	d="
M170.551987,170.419891 
	C169.548615,169.917175 168.433731,169.108078 167.508102,167.890900 
	C168.611740,168.359711 169.526093,169.236588 170.551987,170.419891 
z"/>
<path fill="#292929" opacity="1.000000" stroke="none" 
	d="
M153.142944,128.356461 
	C152.785873,127.625130 152.428802,126.893799 152.071747,126.162468 
	C153.134445,126.495323 154.197159,126.828178 154.801987,127.587769 
	C153.943726,128.128494 153.543335,128.242477 153.142944,128.356461 
z"/>
<path fill="#050505" opacity="1.000000" stroke="none" 
	d="
M202.985199,238.387009 
	C203.127930,237.553177 203.310471,236.962982 203.744385,236.186340 
	C204.144531,236.932083 204.293335,237.864258 204.146317,238.929474 
	C203.474136,239.111969 203.198990,238.968018 202.985199,238.387009 
z"/>
<path fill="#141414" opacity="1.000000" stroke="none" 
	d="
M213.852539,187.396912 
	C214.890457,188.060516 215.966049,189.048264 217.058655,190.392746 
	C216.013840,189.740021 214.952042,188.730530 213.852539,187.396912 
z"/>
<path fill="#0E0E0E" opacity="1.000000" stroke="none" 
	d="
M230.305908,257.907715 
	C230.939285,257.062683 231.883560,256.225189 233.152985,255.567490 
	C232.524368,256.469971 231.570572,257.192596 230.305908,257.907715 
z"/>
<path fill="#0E0E0E" opacity="1.000000" stroke="none" 
	d="
M128.076263,141.303177 
	C128.951340,141.873108 129.888840,142.753906 130.706116,144.018341 
	C129.770142,143.472656 128.954407,142.543365 128.076263,141.303177 
z"/>
<path fill="#050505" opacity="1.000000" stroke="none" 
	d="
M205.120789,241.243591 
	C207.177399,239.988739 208.435654,240.059753 207.325714,243.185516 
	C206.456390,242.839066 205.799042,242.182800 205.120789,241.243591 
z"/>
<path fill="#0E0E0E" opacity="1.000000" stroke="none" 
	d="
M178.293961,178.220856 
	C177.380783,177.752548 176.324173,177.021103 175.406296,175.911652 
	C176.413528,176.341644 177.282028,177.149689 178.293961,178.220856 
z"/>
<path fill="#0E0E0E" opacity="1.000000" stroke="none" 
	d="
M234.054047,255.350128 
	C234.314667,254.409653 234.859619,253.332153 235.747650,252.122589 
	C235.506622,253.064728 234.922501,254.138931 234.054047,255.350128 
z"/>
<path fill="#141414" opacity="1.000000" stroke="none" 
	d="
M229.133423,202.297699 
	C230.036011,202.752563 231.018631,203.508194 232.000732,204.631607 
	C231.071289,204.199081 230.142365,203.398758 229.133423,202.297699 
z"/>
<path fill="#0E0E0E" opacity="1.000000" stroke="none" 
	d="
M149.576508,169.164993 
	C150.280136,169.492508 151.092880,170.101288 151.845764,171.142120 
	C151.085831,170.864853 150.385727,170.155548 149.576508,169.164993 
z"/>
<path fill="#0E0E0E" opacity="1.000000" stroke="none" 
	d="
M125.735435,138.371704 
	C126.447762,138.780853 127.232445,139.507324 128.012756,140.609589 
	C127.274841,140.219925 126.541321,139.454483 125.735435,138.371704 
z"/>
<path fill="#0E0E0E" opacity="1.000000" stroke="none" 
	d="
M192.901810,225.368988 
	C193.586746,225.764465 194.315094,226.471588 195.041229,227.535400 
	C194.341064,227.154922 193.643143,226.417770 192.901810,225.368988 
z"/>
<path fill="#0E0E0E" opacity="1.000000" stroke="none" 
	d="
M151.209320,150.487854 
	C150.496414,150.163803 149.721680,149.542130 148.939590,148.563354 
	C149.670670,148.867584 150.409073,149.528900 151.209320,150.487854 
z"/>
<path fill="#141414" opacity="1.000000" stroke="none" 
	d="
M237.848419,212.338104 
	C238.539688,212.782898 239.272156,213.550873 239.989990,214.691254 
	C239.280106,214.262863 238.584869,213.462082 237.848419,212.338104 
z"/>
<path fill="#141414" opacity="1.000000" stroke="none" 
	d="
M234.424408,208.184845 
	C235.142349,208.451874 235.862839,209.007233 236.381516,209.750000 
	C235.595459,209.449310 235.011215,208.961243 234.424408,208.184845 
z"/>
<path fill="#272727" opacity="1.000000" stroke="none" 
	d="
M124.943916,172.359528 
	C125.599953,172.843460 126.283676,173.652069 126.937683,174.832520 
	C126.262512,174.364319 125.617050,173.524261 124.943916,172.359528 
z"/>
<path fill="#0E0E0E" opacity="1.000000" stroke="none" 
	d="
M175.308502,175.183411 
	C174.694977,175.021301 173.923706,174.590302 173.214142,173.746765 
	C173.900818,173.861008 174.525787,174.387756 175.308502,175.183411 
z"/>
<path fill="#0E0E0E" opacity="1.000000" stroke="none" 
	d="
M158.004501,158.056915 
	C157.677689,158.512970 157.330338,159.000671 156.983002,159.488358 
	C157.095566,159.019653 157.208130,158.550964 157.667282,158.028809 
	C158.013855,157.975342 157.983978,158.088547 158.004501,158.056915 
z"/>
<path fill="#0E0E0E" opacity="1.000000" stroke="none" 
	d="
M155.229492,154.567719 
	C154.606567,154.399216 153.888489,153.931732 153.196930,153.095688 
	C153.860428,153.240997 154.497391,153.754852 155.229492,154.567719 
z"/>
<path fill="#0E0E0E" opacity="1.000000" stroke="none" 
	d="
M153.209869,152.471191 
	C152.566025,152.334747 151.858414,151.892639 151.184937,151.087067 
	C151.861420,151.204239 152.503754,151.684875 153.209869,152.471191 
z"/>
<path fill="#0E0E0E" opacity="1.000000" stroke="none" 
	d="
M134.997009,150.316956 
	C135.585373,150.554001 136.211227,151.092590 136.764404,151.978012 
	C136.139328,151.756058 135.586914,151.187271 134.997009,150.316956 
z"/>
<path fill="#0E0E0E" opacity="1.000000" stroke="none" 
	d="
M205.376099,207.054352 
	C204.742188,206.913376 203.995316,206.495285 203.352646,205.669128 
	C204.058945,205.766449 204.661026,206.271851 205.376099,207.054352 
z"/>
<path fill="#0E0E0E" opacity="1.000000" stroke="none" 
	d="
M225.993286,231.015793 
	C226.002686,230.499786 226.012070,229.983780 226.072510,229.083923 
	C226.761963,229.202530 227.400391,229.704971 228.126129,230.504013 
	C228.213425,230.800629 228.013718,230.993790 227.616226,231.031982 
	C226.810257,231.052063 226.401764,231.033936 225.993286,231.015793 
z"/>
<path fill="#171717" opacity="1.000000" stroke="none" 
	d="
M153.247971,128.643951 
	C153.543335,128.242477 153.943726,128.128494 154.949036,127.859451 
	C155.981613,127.971115 156.409302,128.237854 156.927414,128.749161 
	C156.460800,129.278290 155.903732,129.562836 155.053070,129.958160 
	C154.290634,129.689758 153.821808,129.310608 153.247971,128.643951 
z"/>
<path fill="#E0E0E0" opacity="1.000000" stroke="none" 
	d="
M102.649643,98.359436 
	C102.838379,98.211906 103.097572,98.070969 103.356766,97.930038 
	C103.269501,98.029213 103.182220,98.128380 102.933067,98.362778 
	C102.771194,98.498016 102.720100,98.366035 102.649643,98.359436 
z"/>
<path fill="#171717" opacity="1.000000" stroke="none" 
	d="
M190.414886,156.773834 
	C190.052231,157.416229 189.635910,158.055923 189.219574,158.695633 
	C188.993317,158.520264 188.767044,158.344894 188.540771,158.169525 
	C188.948944,157.739197 189.357117,157.308868 190.080170,156.773834 
	C190.395035,156.669128 190.361206,156.771164 190.414886,156.773834 
z"/>
<path fill="#010101" opacity="1.000000" stroke="none" 
	d="
M252.364517,216.706711 
	C251.992172,217.276794 251.582764,217.866821 251.138107,218.428955 
	C251.126328,218.443848 250.731659,218.155884 250.515564,218.009140 
	C250.918594,217.617661 251.321625,217.226181 252.041718,216.737946 
	C252.358810,216.641190 252.322708,216.722900 252.364517,216.706711 
z"/>
<path fill="#050505" opacity="1.000000" stroke="none" 
	d="
M206.731689,217.250946 
	C207.756226,216.995575 208.503281,216.995346 209.623962,216.995422 
	C209.997818,217.321777 210.115051,217.711060 209.978729,217.963303 
	C209.261230,219.290909 208.479706,220.583908 207.720398,221.888916 
	C207.298355,220.427963 206.876297,218.967026 206.731689,217.250946 
z"/>
<path fill="#050505" opacity="1.000000" stroke="none" 
	d="
M225.995132,231.413849 
	C226.401764,231.033936 226.810257,231.052063 227.518082,231.130280 
	C228.191818,232.237183 228.566208,233.283997 228.968475,234.666321 
	C228.247437,235.001617 227.498535,235.001404 226.374817,235.000595 
	C226.000000,235.000000 225.999390,234.999390 225.999390,234.999390 
	C225.998581,233.936890 225.997787,232.874390 225.995132,231.413849 
z"/>
<path fill="#050505" opacity="1.000000" stroke="none" 
	d="
M221.782669,228.162354 
	C222.000000,228.000000 222.497360,227.994659 222.746002,227.993073 
	C222.574203,228.503632 222.153763,229.015793 221.733337,229.527954 
	C221.677322,229.126877 221.621338,228.725784 221.782669,228.162354 
z"/>
<path fill="#050505" opacity="1.000000" stroke="none" 
	d="
M226.000305,235.000305 
	C225.879578,235.426163 225.758545,235.851715 225.637512,236.277252 
	C225.623505,235.933304 225.609497,235.589355 225.797455,235.122406 
	C225.999390,234.999390 226.000000,235.000000 226.000305,235.000305 
z"/>
<path fill="#0E0E0E" opacity="1.000000" stroke="none" 
	d="
M172.999084,194.999084 
	C173.119797,194.571182 173.241440,194.144196 173.363068,193.717209 
	C173.378128,194.063675 173.393188,194.410141 173.204742,194.878784 
	C173.001266,195.000961 173.000000,195.000000 172.999084,194.999084 
z"/>
<path fill="#0E0E0E" opacity="1.000000" stroke="none" 
	d="
M163.998627,167.998245 
	C163.908920,168.033768 163.820602,168.071045 163.867889,168.055511 
	C164.003479,168.002701 164.000000,168.000000 163.998627,167.998245 
z"/>
<path fill="#0E0E0E" opacity="1.000000" stroke="none" 
	d="
M154.467346,159.449219 
	C154.523483,159.415588 154.411224,159.482864 154.467346,159.449219 
z"/>
<path fill="#050505" opacity="1.000000" stroke="none" 
	d="
M217.468689,224.451355 
	C217.522720,224.419418 217.414673,224.483307 217.468689,224.451355 
z"/>
</svg>