<svg fill="none" height="36" viewBox="0 0 36 36" width="36" xmlns="http://www.w3.org/2000/svg" class="PLTLJq_octopus"><path d="m23 0h-10c-7.1797 0-13 5.8203-13 13v10c0 7.1797 5.8203 13 13 13h10c7.1797 0 13-5.8203 13-13v-10c0-7.1797-5.8203-13-13-13z" fill="#75fb6e"></path><g fill="#111"><path d="m15.2985 9.40241v-.03518l.1667-.14375h2.5693v-1.22348h-2.5693l-.3839.36398v.50775l-.1804.14375h-.0275c.1498.12235.2814.25999.4251.38693z"></path><path d="m14.9427 8.99884h-.5078l-.3456.36551v.48786l.3456.36399h.5078l.364-.36399v-.48786z"></path><path d="m16.6258 16.2059h-.5077l-.3456.3655v1.2726l.3456.364h.5077l.364-.364v-1.2726z"></path><path d="m14.9308 18.2343h-.5077l-.3456.364v.4878l.3456.3655h.5077l.364-.3655v-.4878z"></path><path d="m21.5573 18.2343h-.5078l-.3441.364v.4878l.3441.3655h.5078l.3655-.3655v-.4878z"></path><path d="m14.4842 9.78149-.364.04283-.107.13611-.5047.05817-1.2235 1.5492.0597.5047-.1422.1728.0351.315.3946-.0458.1101-.1285.5047-.0581 1.2097-1.5477-.0596-.4986.1284-.1483z"></path><path d="m12.2235 15.8612.3655.0428.107.1361.5032.0582 1.2235 1.5492-.0597.5047.1438.1728-.0367.315-.3946-.0459-.1101-.1284-.5047-.0581-1.2082-1.5477.0582-.4986-.1285-.1483z"></path><path d="m12.4898 11.9857-.263.2554-.0031.1729-.364.3532-.029 2.8905.3548.364-.0092.2263.2218.2264.2844-.2753.0092-.1698.364-.3532.0183-2.8813-.3486-.3594.0107-.1958z"></path><path d="m20.7145 9.40241v-.03518l-.1667-.14375h-2.5739v-1.22348h2.5693l.3838.36398v.50775l.1805.14375h.0275c-.1453.12235-.2768.25999-.4205.38693z"></path><path d="m21.0694 8.99884h.5078l.3456.36551v.48786l-.3456.36399h-.5078l-.364-.36399v-.48786z"></path><path d="m19.3877 16.2142h.5077l.3456.3656v1.2654l-.3456.364h-.5077l-.364-.364v-1.2654z"></path><path d="m21.528 9.78149.364.04283.1086.13611.5031.05817 1.2235 1.5492-.0597.5047.1438.1728-.0367.315-.3946-.0458-.1101-.1285-.5047-.0581-1.2082-1.5477.0582-.4986-.1285-.1483z"></path><path d="m23.7889 15.8612-.364.0428-.1071.1361-.5047.0582-1.2219 1.5492.0581.5047-.1437.1728.0367.315.3945-.0459.1101-.1284.5047-.0581 1.2097-1.5477-.0581-.4986.127-.1483z"></path><path d="m23.5224 11.9857.2646.2554.0015.1729.364.3532.0291 2.8905-.3548.364.0092.2263-.2203.2264-.2844-.2753-.0107-.1698-.364-.3532-.0184-2.8813.3487-.3594-.0107-.1958z"></path><path d="m10.8935 17.2117h-.5078l-.3456.3655v.4878l.3456.364h.5078l.364-.364v-.4878z"></path><path d="m10.6851 18.0934-.263.2569-.0031.1713-.3639.3548-.0276 2.2665.3533.3639-.0076.2249.2217.1835.2829-.2309.0092-.1698.364-.3533.0199-2.2588-.3502-.3594.0122-.1958z"></path><path d="m7.65869 15.7263.0627.5047 1.7939 1.3871.50471-.0642.1743.1422.3136-.0397-.049-.3931-.1284-.1086-.0627-.5046-1.79241-1.3734-.4971.0627z"></path><path d="m14.9505 19.6315-.0092-.1896-.2523-.2478-.2585.2631.0015.1728-.2905.2951-.0643.0643v.0015.0015 2.2696.26l-.156.1498h-2.5326l-.1498-.1498v-.5078l-.3594-.3579h-.5078l-.3441.3579v.5078l.3441.3456h.5078l.1636.1621v.5077l.3456.3457h2.5326l.3579-.3457v-.5077l.1621-.1621h.5093l.3441-.3456v-.1744-2.3582z"></path><path d="m25.1068 17.2117h.5077l.3457.3655v.4878l-.3457.364h-.5077l-.364-.364v-.4878z"></path><path d="m25.3138 18.0934.2645.2569.0031.1713.364.3548.0275 2.2665-.3533.3639.0077.2249-.2218.1835-.2829-.2309-.0092-.1698-.3655-.3533-.0183-2.2588.3502-.3594-.0123-.1958z"></path><path d="m28.3413 15.7263-.0642.5047-1.7924 1.3871-.5047-.0642-.1744.1422-.315-.0397.0505-.3931.1284-.1086.0627-.5046 1.7924-1.3734.4971.0627z"></path><path d="m21.0495 19.6315.0092-.1896.2524-.2478.2584.2631-.003.1728.2921.2951.0642.0643v.0015.0015 2.2696.26l.156.1498h2.5326l.1499-.1498v-.5078l.3578-.3579h.5078l.3456.3579v.5078l-.3456.3456h-.5078l-.1621.1621v.5077l-.3456.3457h-2.5326l-.3579-.3457v-.5077l-.1636-.1621h-.5078l-.3441-.3456v-.1744-2.3582z"></path><path d="m17.3029 23.6311-.0046-.003.0061-.4955-.3548-.3625-.5077-.0046-.3625.3548-.0046.494-.1514.1621-.5016-.0046-2.4133 2.3583-.0046.5077.3548.3487.5078.0061 2.4133-2.3598.0045-.4955.1453-.1605.4833.0045z"></path><path d="m13.0033 26.6374-.1591.1514h-2.5341l-.1484-.1499v-.5077l-.3594-.3579h-.5077l-.3441.3579v.5077l.3441.3441h.5077l.1637.1637v.5077l.3441.3456h2.5341l.3579-.3456v-.5077l.1621-.1637h.0061z"></path><path d="m18.7371 23.6311.0031-.003-.0046-.4955.3548-.3625.5077-.0046.361.3548.0046.494.1514.1621.5016-.0046 2.4133 2.3583.0061.5077-.3548.3487-.5077.0061-2.4133-2.3598-.0062-.4955-.1437-.1605-.4848.0045z"></path><path d="m23.0361 26.6374.159.1514h2.5326l.1499-.1499v-.5077l.3578-.3579h.5078l.3456.3579v.5077l-.3456.3441h-.5078l-.1621.1637v.5077l-.3456.3456h-2.5326l-.3579-.3456v-.5077l-.1636-.1637h-.0046z"></path></g></svg>
